<?xml version="1.0" ?><svg id="Icons" viewBox="0 0 60 60" xmlns="http://www.w3.org/2000/svg"><defs><style>.cls-1{fill:#866adc;}.cls-2{fill:#4c4139;}.cls-3{fill:#5b493d;}.cls-4{fill:#c18c65;}.cls-5{fill:#d39f71;}.cls-6{fill:#d6dbe3;}.cls-7{fill:#31b5a5;}.cls-8{fill:#b9bfcc;}.cls-9{fill:#373737;}</style></defs><path class="cls-1" d="M26,45l5.425,1.3A10,10,0,0,1,39,56v1a2,2,0,0,1-2,2H7a2,2,0,0,1-2-2V56a10,10,0,0,1,7.575-9.7L18,45Z"/><path class="cls-2" d="M16.05,10.24a6,6,0,0,1,11.9,0Z"/><path class="cls-3" d="M35,28.509a46.762,46.762,0,0,0,.982-7.912A10.092,10.092,0,0,0,25.818,10H18.182A10.092,10.092,0,0,0,8.017,20.6,46.762,46.762,0,0,0,9,28.509Z"/><path class="cls-4" d="M26,40.32V45a4.167,4.167,0,0,1-8,0V40.32Z"/><path class="cls-5" d="M35,28.5a3.444,3.444,0,0,1-2.24,3.38A8.414,8.414,0,0,1,30,37c-4,3-5,5-8,5s-4-2-8-5a8.414,8.414,0,0,1-2.76-5.12A3.444,3.444,0,0,1,9,28.5a3.479,3.479,0,0,1,2-3.29A6.214,6.214,0,0,1,17.21,19,6.827,6.827,0,0,0,22,17a6.827,6.827,0,0,0,4.79,2A6.214,6.214,0,0,1,33,25.21,3.479,3.479,0,0,1,35,28.5Z"/><path class="cls-6" d="M59,18V39.34a9.991,9.991,0,0,1-1.32,4.97l-1.36,2.38A9.991,9.991,0,0,0,55,51.66V54l-2,1-2-1V51.66a9.991,9.991,0,0,0-1.32-4.97l-1.36-2.38A9.991,9.991,0,0,1,47,39.34V18.25A6.208,6.208,0,0,1,53.16,12,6.013,6.013,0,0,1,59,18Z"/><path class="cls-7" d="M55,21v8a2,2,0,0,1-4,0V21a2.006,2.006,0,0,1,2-2,2.015,2.015,0,0,1,2,2Z"/><path class="cls-8" d="M55,54v2.88a2.073,2.073,0,0,1-1.66,2.09A2,2,0,0,1,51,57V54Z"/><path class="cls-9" d="M31.658,45.326,27,44.211V40.789c.234-.2.472-.406.721-.622.8-.7,1.7-1.484,2.882-2.369a8.967,8.967,0,0,0,3.024-5.191,4.525,4.525,0,0,0,2.361-3.925,48.968,48.968,0,0,0,.993-8.028A10.838,10.838,0,0,0,34,12.513a11.093,11.093,0,0,0-5.189-3.105,7,7,0,0,0-13.628,0A11.093,11.093,0,0,0,10,12.513a10.838,10.838,0,0,0-2.978,8.141,48.968,48.968,0,0,0,.993,8.028,4.525,4.525,0,0,0,2.361,3.925A8.973,8.973,0,0,0,13.4,37.8c1.176.883,2.08,1.671,2.879,2.367.249.216.487.424.721.622V45a1.021,1.021,0,0,0,.034.258A5.139,5.139,0,0,0,22,49a5.061,5.061,0,0,0,4.6-2.828l4.583,1.1A8.985,8.985,0,0,1,38,56v1a1,1,0,0,1-1,1H33V55a1,1,0,0,0-2,0v3H13V55a1,1,0,0,0-2,0v3H7a1,1,0,0,1-1-1V56a8.982,8.982,0,0,1,6.808-8.729l1.425-.341a1,1,0,0,0-.466-1.946l-1.435.345A10.982,10.982,0,0,0,4,56v1a3,3,0,0,0,3,3H37a3,3,0,0,0,3-3V56A10.986,10.986,0,0,0,31.658,45.326ZM22,6a4.993,4.993,0,0,1,4.578,3.038c-.253-.017-.5-.038-.76-.038H18.182c-.256,0-.507.021-.76.038A4.993,4.993,0,0,1,22,6ZM11.451,13.886a9.117,9.117,0,0,1,4.757-2.677.944.944,0,0,0,.16-.032A9.472,9.472,0,0,1,18.182,11h7.636a9.5,9.5,0,0,1,1.768.17,1.031,1.031,0,0,0,.23.046,9.108,9.108,0,0,1,4.733,2.67,8.86,8.86,0,0,1,2.436,6.653c-.106,1.829-.259,3.339-.412,4.529a3.963,3.963,0,0,0-.6-.478A7.216,7.216,0,0,0,26.79,18a5.822,5.822,0,0,1-4.083-1.707,1,1,0,0,0-1.414,0A5.822,5.822,0,0,1,17.21,18a7.216,7.216,0,0,0-7.184,6.59,3.963,3.963,0,0,0-.6.478c-.153-1.19-.306-2.7-.412-4.529A8.86,8.86,0,0,1,11.451,13.886ZM14.6,36.2a7.586,7.586,0,0,1-2.381-4.513,1,1,0,0,0-.693-.766,2.7,2.7,0,0,1-.156-4.785A1,1,0,0,0,12,25.21a5.138,5.138,0,0,1,3-4.7V23a1,1,0,0,0,2,0V20.021c.071,0,.139-.021.21-.021A7.617,7.617,0,0,0,19,19.759V20a1,1,0,0,0,2,0V18.99a7.831,7.831,0,0,0,1-.657A7.822,7.822,0,0,0,26.79,20,5.214,5.214,0,0,1,32,25.21a1,1,0,0,0,.627.928,2.7,2.7,0,0,1-.156,4.785,1,1,0,0,0-.693.766A7.587,7.587,0,0,1,29.4,36.2c-1.235.926-2.17,1.74-2.994,2.459C24.618,40.218,23.721,41,22,41s-2.618-.782-4.406-2.341C16.77,37.94,15.835,37.126,14.6,36.2ZM22,47a3.1,3.1,0,0,1-3-2.15V42.239a6.294,6.294,0,0,0,6,0v2.61A3.1,3.1,0,0,1,22,47Z"/><path class="cls-9" d="M53.181,11a6.9,6.9,0,0,0-4.947,1.983A7.406,7.406,0,0,0,46,18.252V39.34a11.015,11.015,0,0,0,1.452,5.466l1.362,2.384A9.014,9.014,0,0,1,50,51.655V57a3.006,3.006,0,0,0,3.005,3,3.058,3.058,0,0,0,.5-.042A3.1,3.1,0,0,0,56,56.878V51.655a9.014,9.014,0,0,1,1.186-4.465l1.362-2.383A11.022,11.022,0,0,0,60,39.34V18a7.01,7.01,0,0,0-6.819-7Zm0,46.983a.991.991,0,0,1-.819-.221A1.006,1.006,0,0,1,52,57V55h2v1.878A1.1,1.1,0,0,1,53.176,57.985ZM58,39.34a9.022,9.022,0,0,1-1.188,4.473L55.449,46.2A11.017,11.017,0,0,0,54,51.655V53H52V51.655A11.017,11.017,0,0,0,50.551,46.2l-1.363-2.385A9.022,9.022,0,0,1,48,39.34V18.252a5.4,5.4,0,0,1,1.631-3.835A4.834,4.834,0,0,1,53.014,13l.116,0A5.009,5.009,0,0,1,58,18Z"/><path class="cls-9" d="M53,18a3,3,0,0,0-3,3v8a3,3,0,0,0,6,0V21A3,3,0,0,0,53,18Zm0,2a1,1,0,0,1,1,1v1.586l-2,2V21A1,1,0,0,1,53,20Zm0,10a1,1,0,0,1-1-1V27.414l2-2V29A1,1,0,0,1,53,30Z"/><path class="cls-9" d="M20.832,36.555a1.5,1.5,0,0,1,2.344.012,1,1,0,0,0,1.656-1.122,3.5,3.5,0,0,0-5.664,0,1,1,0,1,0,1.664,1.11Z"/><path class="cls-9" d="M16,26a1,1,0,0,0-1,1v1a1,1,0,0,0,2,0V27A1,1,0,0,0,16,26Z"/><path class="cls-9" d="M27,29a1,1,0,0,0,1-1V27a1,1,0,0,0-2,0v1A1,1,0,0,0,27,29Z"/><path class="cls-9" d="M21.22,32H22a1,1,0,0,0,0-2l-.8.065.761-2.8a1,1,0,1,0-1.93-.524l-.776,2.869A2,2,0,0,0,21.22,32Z"/><path class="cls-9" d="M54,35H52a1,1,0,0,0,0,2h2a1,1,0,0,0,0-2Z"/><path class="cls-9" d="M3,9A1,1,0,0,0,1,9a4.841,4.841,0,0,1-.429,2.129A6.778,6.778,0,0,0,0,14a6.778,6.778,0,0,0,.571,2.871A4.841,4.841,0,0,1,1,19a1,1,0,0,0,2,0,6.778,6.778,0,0,0-.571-2.871A4.841,4.841,0,0,1,2,14a4.841,4.841,0,0,1,.429-2.129A6.778,6.778,0,0,0,3,9Z"/><path class="cls-9" d="M8,1A1,1,0,0,0,6,1a4.841,4.841,0,0,1-.429,2.129A6.778,6.778,0,0,0,5,6a6.778,6.778,0,0,0,.571,2.871A4.841,4.841,0,0,1,6,11a1,1,0,0,0,2,0,6.778,6.778,0,0,0-.571-2.871A4.841,4.841,0,0,1,7,6a4.841,4.841,0,0,1,.429-2.129A6.778,6.778,0,0,0,8,1Z"/><path class="cls-9" d="M43,9a1,1,0,0,0-2,0,6.778,6.778,0,0,0,.571,2.871A4.841,4.841,0,0,1,42,14a4.841,4.841,0,0,1-.429,2.129A6.778,6.778,0,0,0,41,19a1,1,0,0,0,2,0,4.841,4.841,0,0,1,.429-2.129A6.778,6.778,0,0,0,44,14a6.778,6.778,0,0,0-.571-2.871A4.841,4.841,0,0,1,43,9Z"/><path class="cls-9" d="M36,11a1,1,0,0,0,2,0,4.841,4.841,0,0,1,.429-2.129A6.778,6.778,0,0,0,39,6a6.778,6.778,0,0,0-.571-2.871A4.841,4.841,0,0,1,38,1a1,1,0,0,0-2,0,6.778,6.778,0,0,0,.571,2.871A4.841,4.841,0,0,1,37,6a4.841,4.841,0,0,1-.429,2.129A6.778,6.778,0,0,0,36,11Z"/></svg>