<?xml version="1.0" ?><svg id="Icons" viewBox="0 0 60 60" xmlns="http://www.w3.org/2000/svg"><defs><style>.cls-1{fill:#299989;}.cls-2{fill:#31b5a5;}.cls-3{fill:#d6dbe3;}.cls-4{fill:#373737;}</style></defs><path class="cls-1" d="M57,59H3a2,2,0,0,1-2-2V36l1-1H58l1,1V57A2,2,0,0,1,57,59Z"/><path class="cls-2" d="M50.76,22a2,2,0,0,1,1.79,1.11L59,36H1L7.45,23.11A2,2,0,0,1,9.24,22Z"/><path class="cls-1" d="M16.64,26H14a3,3,0,0,0,0,6H46a3,3,0,0,0,0-6H16.64Z"/><path class="cls-3" d="M45.89,6.71,42,32H17.84L12.02,2.83a.987.987,0,0,1,.73-1.16A31.237,31.237,0,0,1,19.68,1a36.069,36.069,0,0,1,7.38.7.99.99,0,0,1,.77,1.16l-.32,1.75c.65-.11,1.34-.21,2.09-.29A45.5,45.5,0,0,1,35,4c5.85,0,9.03,1.07,10.31,1.65A.975.975,0,0,1,45.89,6.71Z"/><path class="cls-4" d="M59.931,35.656c-.009-.022-.014-.045-.024-.066s-.006-.025-.012-.037L53.444,22.664A2.985,2.985,0,0,0,50.76,21H44.7L46.879,6.861a2,2,0,0,0-1.157-2.128C44.277,4.086,40.965,3,35,3a47.143,47.143,0,0,0-6.255.412l.068-.376A1.994,1.994,0,0,0,27.271.72,36.869,36.869,0,0,0,19.68,0a32.137,32.137,0,0,0-7.167.7,1.994,1.994,0,0,0-1.474,2.334L15.424,25H14a4,4,0,0,0,0,8H46a4,4,0,0,0,0-8H44.089l.307-2H50.76a1,1,0,0,1,.9.558L57.382,35H2.618L8.345,23.557A1,1,0,0,1,9.24,23H12a1,1,0,0,0,0-2H9.24a2.985,2.985,0,0,0-2.684,1.663L.105,35.553c-.006.012-.007.025-.013.037s-.014.044-.023.066a.993.993,0,0,0-.062.308c0,.012-.007.023-.007.036V57a3,3,0,0,0,3,3H57a3,3,0,0,0,3-3V36c0-.013-.007-.023-.007-.036A.993.993,0,0,0,59.931,35.656ZM19.68,2a35.106,35.106,0,0,1,7.167.677l-.32,1.753,0,0-1.509,8.349a1,1,0,1,0,1.968.356L28.366,5.5A44.7,44.7,0,0,1,35,5c5.8,0,8.858,1.09,9.9,1.558L41.142,31H18.66L12.992,2.637A30.586,30.586,0,0,1,19.68,2ZM12,29a2,2,0,0,1,2-2h1.823l.8,4H14A2,2,0,0,1,12,29Zm34-2a2,2,0,0,1,0,4H43.166l.615-4ZM57,58H3a1,1,0,0,1-1-1V55H9a1,1,0,0,0,0-2H2V42H41a1,1,0,0,0,0-2H2V37H58v3H51a1,1,0,0,0,0,2h7V53H19a1,1,0,0,0,0,2H58v2A1,1,0,0,1,57,58Z"/><path class="cls-4" d="M15,53H13a1,1,0,0,0,0,2h2a1,1,0,0,0,0-2Z"/><path class="cls-4" d="M45,42h2a1,1,0,0,0,0-2H45a1,1,0,0,0,0,2Z"/></svg>