<?xml version="1.0" ?><svg id="Icons" viewBox="0 0 60 60" xmlns="http://www.w3.org/2000/svg"><defs><style>.cls-1{fill:#d6dbe3;}.cls-2{fill:#ccd0da;}.cls-3{fill:#439af6;}.cls-4{fill:#eebd91;}.cls-5{fill:#31b5a5;}.cls-6{fill:#373737;}</style></defs><rect class="cls-1" height="14" width="4" x="46" y="2"/><path class="cls-2" d="M43,15H53a2,2,0,0,1,2,2v4a0,0,0,0,1,0,0H41a0,0,0,0,1,0,0V17A2,2,0,0,1,43,15Z"/><rect class="cls-1" height="40" rx="3" width="22" x="37" y="19"/><path class="cls-3" d="M37,26H50a2,2,0,0,1,2,2V51a2,2,0,0,1-2,2H37Z"/><path class="cls-4" d="M43,36.24a2.224,2.224,0,0,1-.8,1.71L27.56,49.7A5.615,5.615,0,0,1,23.97,51a5.473,5.473,0,0,1-1.88-.33L9.652,46.233A4,4,0,0,0,8.308,46H2a1,1,0,0,1-1-1V37a1,1,0,0,1,1-1H7.667a4,4,0,0,0,2.4-.8l1.653-1.24A4.762,4.762,0,0,1,14.437,33a4.357,4.357,0,0,1,.953.068l15.94,2.61a2.251,2.251,0,0,1,1.929,2.079A2.185,2.185,0,0,1,31.09,40H21l4.49,3.8a.856.856,0,0,0,1.05.04l12.87-9.38A2.234,2.234,0,0,1,43,36.24Z"/><path class="cls-5" d="M31,24.065a2,2,0,0,1-4,0,5.483,5.483,0,0,1,1.5-2.834.663.663,0,0,1,1.006,0A5.483,5.483,0,0,1,31,24.065Z"/><path class="cls-5" d="M27,15.065a2,2,0,0,1-4,0,5.483,5.483,0,0,1,1.5-2.834.663.663,0,0,1,1.006,0A5.483,5.483,0,0,1,27,15.065Z"/><path class="cls-5" d="M33,8.065a2,2,0,0,1-4,0,5.483,5.483,0,0,1,1.5-2.834.663.663,0,0,1,1.006,0A5.483,5.483,0,0,1,33,8.065Z"/><path class="cls-6" d="M26,24.065a3,3,0,0,0,6,0,5.87,5.87,0,0,0-1.738-3.485,1.717,1.717,0,0,0-2.524,0A5.874,5.874,0,0,0,26,24.065Zm3-1.874a3.913,3.913,0,0,1,1,1.874,1,1,0,0,1-2,0A3.913,3.913,0,0,1,29,22.191Z"/><path class="cls-6" d="M23.738,11.579A5.874,5.874,0,0,0,22,15.065a3,3,0,0,0,6,0,5.87,5.87,0,0,0-1.738-3.485A1.717,1.717,0,0,0,23.738,11.579ZM25,16a.97.97,0,0,1-1-.935,3.913,3.913,0,0,1,1-1.874,3.913,3.913,0,0,1,1,1.874A.97.97,0,0,1,25,16Z"/><path class="cls-6" d="M34,8.065A5.87,5.87,0,0,0,32.262,4.58a1.717,1.717,0,0,0-2.524,0A5.874,5.874,0,0,0,28,8.065a3,3,0,0,0,6,0Zm-4,0a3.913,3.913,0,0,1,1-1.874,3.913,3.913,0,0,1,1,1.874,1,1,0,0,1-2,0Z"/><path class="cls-6" d="M56.172,2a1,1,0,0,1,.707.293l1.414,1.414a1,1,0,0,0,1.414-1.414L58.293.879A2.982,2.982,0,0,0,56.172,0H26a1,1,0,0,0,0,2H45V14H43a3,3,0,0,0-3,3v1a4,4,0,0,0-4,4V35.708L34.159,37.05a3.286,3.286,0,0,0-2.668-2.357l-15.911-2.6A5.429,5.429,0,0,0,14.409,32,5.735,5.735,0,0,0,11.12,33.16L9.466,34.4a3.013,3.013,0,0,1-1.8.6H2a2,2,0,0,0-2,2v8a2,2,0,0,0,2,2H8.308a3.019,3.019,0,0,1,1.008.174l12.43,4.435A6.46,6.46,0,0,0,23.97,52a6.619,6.619,0,0,0,4.216-1.52L36,44.209V56a4,4,0,0,0,4,4H56a4,4,0,0,0,4-4V22a4,4,0,0,0-4-4V17a3,3,0,0,0-3-3H51V2ZM26.92,48.932a4.651,4.651,0,0,1-4.494.8L9.987,45.29A5.017,5.017,0,0,0,8.308,45H2V37H7.667a5.023,5.023,0,0,0,3-1l1.653-1.239A3.778,3.778,0,0,1,14.464,34a3.1,3.1,0,0,1,.765.056l15.94,2.61a1.254,1.254,0,0,1,1.09,1.122,1.141,1.141,0,0,1-.355.872A1.127,1.127,0,0,1,31.09,39H17a1,1,0,0,0,0,2h3.634l4.216,3.567a1.859,1.859,0,0,0,2.279.081l12.889-9.393a1.225,1.225,0,0,1,1.626.113A1.24,1.24,0,0,1,42,36.24a1.211,1.211,0,0,1-.426.93ZM28.738,41l-2.69,1.961L23.729,41ZM58,22V56a2,2,0,0,1-2,2H40a2,2,0,0,1-2-2V54H50a3,3,0,0,0,3-3V28a3,3,0,0,0-3-3H41a1,1,0,0,0,0,2h9a1,1,0,0,1,1,1V51a1,1,0,0,1-1,1H38V42.6l4.839-3.883A3.215,3.215,0,0,0,44,36.24a3.235,3.235,0,0,0-5.179-2.589l-.821.6V22a2,2,0,0,1,2-2H56A2,2,0,0,1,58,22Zm-4-5v1H42V17a1,1,0,0,1,1-1H53A1,1,0,0,1,54,17Zm-5-3H47V2h2Z"/></svg>