<?xml version="1.0" ?><svg id="Icons" viewBox="0 0 60 60" xmlns="http://www.w3.org/2000/svg"><defs><style>.cls-1{fill:#eebd91;}.cls-2{fill:#9e785f;}.cls-3{fill:#295474;}.cls-4{fill:#373737;}</style></defs><path class="cls-1" d="M44.5,44.16a2.982,2.982,0,0,1-4.21,0l-.4-.39a1.969,1.969,0,0,1-.07,2.74l-.01.01a2.958,2.958,0,0,1-4.21,0l-.48-.47a2,2,0,0,1,0,2.83l-.01.01a2.976,2.976,0,0,1-4.22,0l-.21-.2a1.707,1.707,0,0,1-.09,2.49,1.059,1.059,0,0,1-.12.1,3.118,3.118,0,0,1-2.01.72,3.154,3.154,0,0,1-2.12-.82s-1.26-1.2-1.76-1.59L9.07,36.81A31.53,31.53,0,0,0,4,34l4-9,4-7c4.9.66,11-2,11-2s3-1,5,1L44.71,41.52A2.155,2.155,0,0,1,44.5,44.16Z"/><path class="cls-2" d="M56,35,44.71,41.52C41.51,36.41,29,25,29,25a6.087,6.087,0,0,1-3,1c-2.7,6.07-5.39,5.77-6.87,4.93a1.944,1.944,0,0,1-.91-2.15C18.76,26.44,20.2,21.8,21,21c1-1,5-2,7-4s5-1,5-1,8,4,13,2l7,7Z"/><path class="cls-2" d="M23.886,42.148a2.49,2.49,0,0,1-.73,1.77l-4.45,4.45a1.986,1.986,0,0,1-2.83,0l-.71-.7a2,2,0,0,1,0-2.83l4.45-4.46a2.517,2.517,0,0,1,3.54,0A2.49,2.49,0,0,1,23.886,42.148Z"/><path class="cls-2" d="M19.086,39.9a2.419,2.419,0,0,1-.56,1.57c0,.01-3.13,3.15-3.15,3.16a2,2,0,0,1-2.77-.05l-.7-.7a2,2,0,0,1,0-2.83l2.92-2.92a2.5,2.5,0,0,1,4.26,1.77Z"/><path class="cls-2" d="M26.946,46.178a2.49,2.49,0,0,1-.73,1.77l-2.92,2.92a2,2,0,0,1-2.83,0l-.7-.71a2,2,0,0,1,0-2.83l2.92-2.92a2.5,2.5,0,0,1,4.26,1.77Z"/><path class="cls-2" d="M13.786,38.118a2.462,2.462,0,0,1-.68,1.71c-.01.02-1.41,1.42-1.41,1.42a2,2,0,0,1-2.83,0l-.7-.71a2,2,0,0,1,0-2.83l1.36-1.35a2.487,2.487,0,0,1,3.53,0A2.451,2.451,0,0,1,13.786,38.118Z"/><path class="cls-3" d="M1.43,34.98A4.2,4.2,0,0,0,4,34l8-16L5.51,14.46h0a43.05,43.05,0,0,0-4.1,20.084Z"/><path class="cls-3" d="M58.38,35.97A4.175,4.175,0,0,1,56,35L46,18l7.99-4.3.557,1.255A45.518,45.518,0,0,1,58.38,35.97Z"/><path class="cls-4" d="M54.871,13.227a.98.98,0,0,0-.2-.237A29.918,29.918,0,0,0,37.837,1.034a1,1,0,1,0-.522,1.932A27.84,27.84,0,0,1,49.073,9.513l-7.945,7.945a27.46,27.46,0,0,1-7.681-2.353.971.971,0,0,0-.131-.053A6.479,6.479,0,0,0,28,15.711a6.5,6.5,0,0,0-5.4-.628c-.058.025-5.776,2.482-10.3,1.941L6.961,14.113A27.986,27.986,0,0,1,30,2a28.454,28.454,0,0,1,2.9.148A1,1,0,1,0,33.1.158,30.79,30.79,0,0,0,30,0,30,30,0,0,0,4.724,13.871a1.072,1.072,0,0,0-.092.11c-.012.022-.011.045-.021.066a29.84,29.84,0,0,0-4.178,21v0l0,.013A29.994,29.994,0,1,0,54.894,13.3C54.883,13.276,54.884,13.25,54.871,13.227Zm-14.3,29.8-5.946-5.957a1,1,0,1,0-1.416,1.412l5.934,5.945h0a.985.985,0,0,1-.033,1.385,2.011,2.011,0,0,1-2.807,0l-.48-.47L31.305,40.82a1,1,0,0,0-1.414,1.414l4.522,4.523a1,1,0,0,1-.01,1.426,1.988,1.988,0,0,1-2.806,0,.835.835,0,0,0-.088-.058,2.646,2.646,0,0,0-.228-.258l-4.374-4.181c0-.005-.011-.006-.015-.01a3.466,3.466,0,0,0-2.061-.961,3.548,3.548,0,0,0,.055-.567,3.433,3.433,0,0,0-2.336-3.284L32.116,29.3c3.923,3.759,9.752,9.568,11.746,12.753l.006.006v0a1.172,1.172,0,0,1-.073,1.392,1.987,1.987,0,0,1-2.8,0ZM9.52,49.066A27.955,27.955,0,0,1,2.606,35.792a5.377,5.377,0,0,0,1.526-.644,32.193,32.193,0,0,1,3.35,1.83l-.028.027a3.013,3.013,0,0,0,0,4.235l.705.715a2.993,2.993,0,0,0,2.122.878c.025,0,.05-.007.076-.007a2.97,2.97,0,0,0,.842,1.761l.7.7a3.03,3.03,0,0,0,.828.575Zm8.257-8.26-.02.02L16.436,42.15l-1.758,1.758a1,1,0,0,1-1.365-.038l-.7-.7a1,1,0,0,1,0-1.416l2.924-2.924a1.487,1.487,0,0,1,2.112,0,1.489,1.489,0,0,1,.437,1.062A1.433,1.433,0,0,1,17.777,40.806Zm-5.392-1.67c-.009.01-.018.018-.026.028-.166.173-1.37,1.377-1.37,1.377a1,1,0,0,1-1.411.005l-.7-.716a1.006,1.006,0,0,1,0-1.412l1.367-1.356a1.487,1.487,0,0,1,2.118.01,1.489,1.489,0,0,1,.03,2.064Zm3.489,6.409.472-.473a28.134,28.134,0,0,0,2.606-2.61l1.383-1.382a1.512,1.512,0,0,1,2.115.007,1.51,1.51,0,0,1,0,2.124L18,47.661a1,1,0,0,1-.712.3,1.056,1.056,0,0,1-.709-.3l-.7-.7a1,1,0,0,1,0-1.415Zm4.6,2.49,2.921-2.92a1.5,1.5,0,0,1,2.115,2.126l-2.92,2.92a1,1,0,0,1-1.411,0l-.705-.715A1,1,0,0,1,20.473,48.035Zm6.45.62a3.459,3.459,0,0,0,.836-1.388l2.153,2.058a.768.768,0,0,1,.263.566.746.746,0,0,1-.26.551,2.227,2.227,0,0,1-2.9,0l-.983-.9Zm18.1-8.468c-2.456-3.453-7.8-8.774-11.486-12.306l8.357-8.357a11.342,11.342,0,0,0,3.659-.319l9.078,15.433Zm.577-23.1a6.892,6.892,0,0,1-1.67.406l6.554-6.554A28.083,28.083,0,0,1,52.5,13.367Zm-12.963-.148a29.885,29.885,0,0,0,6.75,2.269l-7.3,7.3c-1.349-1.273-2.275-2.12-2.409-2.242a1,1,0,0,0-1.216-.1A5.2,5.2,0,0,1,26,25a1,1,0,0,0-.914.594c-1.49,3.351-2.844,4.4-3.717,4.685a2.077,2.077,0,0,1-1.751-.221.948.948,0,0,1-.424-1.053c.647-2.8,2.01-6.758,2.513-7.3A10.551,10.551,0,0,1,23.839,20.6a16.377,16.377,0,0,0,4.868-2.893A4.208,4.208,0,0,1,32.633,16.934Zm-9.321.016a4.906,4.906,0,0,1,3.008.124,22.276,22.276,0,0,1-3.3,1.7,9.745,9.745,0,0,0-2.731,1.52c-1.226,1.225-2.79,7.147-3.046,8.257a2.948,2.948,0,0,0,1.39,3.25,4.077,4.077,0,0,0,3.357.379c1.726-.569,3.3-2.33,4.676-5.241a7.434,7.434,0,0,0,2.19-.708c.408.378,1.042.969,1.806,1.69l-10.8,10.8a3.462,3.462,0,0,0-3.279-2.322h0a3.452,3.452,0,0,0-1.992.631,3.384,3.384,0,0,0-.831-1.37,3.573,3.573,0,0,0-4.818-.109,36.182,36.182,0,0,0-3.589-2.03l7.225-14.45C17.552,19.438,23.149,17.026,23.312,16.95ZM5.881,15.8l4.793,2.615L3.2,33.367a3.069,3.069,0,0,1-.931.449A27.81,27.81,0,0,1,5.881,15.8ZM30,58a27.889,27.889,0,0,1-19.066-7.52l2.945-2.945a3,3,0,0,0,.585.845l.7.691a2.966,2.966,0,0,0,2.114.89h.009a2.972,2.972,0,0,0,1.077-.207,2.942,2.942,0,0,0,.69,1.106l.709.72a3.017,3.017,0,0,0,4.24,0l.616-.616c.032.029.059.059.095.088l.951.87a4.161,4.161,0,0,0,5.6,0,2.747,2.747,0,0,0,.794-1.284,3.893,3.893,0,0,0,3.77-1.048,2.977,2.977,0,0,0,.776-1.344,4.05,4.05,0,0,0,3.919-1.021,2.954,2.954,0,0,0,.782-1.345,3.993,3.993,0,0,0,3.9-1.008,3.1,3.1,0,0,0,.759-2.919l9.976-5.76a5.381,5.381,0,0,0,1.236.545A28.046,28.046,0,0,1,30,58ZM57.587,34.761a2.941,2.941,0,0,1-.812-.416L47.389,18.388l6.252-3.364a27.847,27.847,0,0,1,3.946,19.737Z"/></svg>