<?xml version="1.0" ?><svg id="Icons" viewBox="0 0 60 60" xmlns="http://www.w3.org/2000/svg"><defs><style>.cls-1{fill:#634f44;}.cls-2{fill:#9e785f;}.cls-3{fill:#80624b;}.cls-4{fill:#31b5a5;}.cls-5{fill:#d6dbe3;}.cls-6{fill:#f0f2f5;}.cls-7{fill:#373737;}</style></defs><path class="cls-1" d="M17,20.47a5.793,5.793,0,0,1-.56-1.72c-.17-1.17-.34-4.43-.44-7.46A10.06,10.06,0,0,1,26.11,1h7.78a10.062,10.062,0,0,1,10.1,10.51,46.086,46.086,0,0,1-1.11,8Z"/><path class="cls-2" d="M20,27a9.8,9.8,0,0,1-.76-3.12A3.444,3.444,0,0,1,17,20.5a3.479,3.479,0,0,1,2-3.29A6.214,6.214,0,0,1,25.21,11H30c2,0,4,0,5-2,2.76,0,5,1.24,5,4v3.2a1,1,0,0,0,.64.95l.44.13A3.317,3.317,0,0,1,43,20.5a3.444,3.444,0,0,1-2.24,3.38A9.8,9.8,0,0,1,40,27Z"/><rect class="cls-3" height="11" width="10" x="25" y="32"/><path class="cls-4" d="M40,27s-3,7-10,7-10-7-10-7,2-4,10-4S40,27,40,27Z"/><path class="cls-5" d="M49,49.08V57a2.006,2.006,0,0,1-2,2H13a2.006,2.006,0,0,1-2-2V49.08a9.986,9.986,0,0,1,7.9-9.77L25,38l5,5,5-5,6.1,1.31A9.986,9.986,0,0,1,49,49.08Z"/><path class="cls-6" d="M37.03,43.48l-1.49.75a1,1,0,0,0-.11,1.73l.97.64a1.007,1.007,0,0,1,.41,1.1L34,59H26L23.19,47.7a1.007,1.007,0,0,1,.41-1.1l.97-.64a1,1,0,0,0-.11-1.73l-1.49-.75a.994.994,0,0,1-.41-1.41L25,38l5,5,5-5,2.44,4.07A.994.994,0,0,1,37.03,43.48Z"/><path class="cls-7" d="M13,60H47a3,3,0,0,0,3-3V49.084a11.057,11.057,0,0,0-8.695-10.756L36,37.192V33.2a14.446,14.446,0,0,0,4.907-5.781c.016-.034.026-.068.041-.1v0a10.382,10.382,0,0,0,.745-2.742A4.566,4.566,0,0,0,44,20.5a5.237,5.237,0,0,0-.1-.966,48.357,48.357,0,0,0,1.087-7.977,10.909,10.909,0,0,0-3.033-8.116A11.042,11.042,0,0,0,33.89,0H26.11a11.079,11.079,0,0,0-8.017,3.386A10.837,10.837,0,0,0,15,11.323c.088,2.672.258,6.258.45,7.571a6.636,6.636,0,0,0,.563,1.827,4.537,4.537,0,0,0,2.292,3.852,10.087,10.087,0,0,0,.775,2.821A14.5,14.5,0,0,0,24,33.2v4.522L21.7,41.56a2,2,0,0,0,.821,2.818l1.493.746-.966.644a1.986,1.986,0,0,0-.827,2.169L24.721,58H20V48a1,1,0,0,0-2,0V58H13a1,1,0,0,1-1-1V49.084a9.048,9.048,0,0,1,7.113-8.8l1.429-.3a1,1,0,1,0-.418-1.956l-1.43.306A11.057,11.057,0,0,0,10,49.084V57A3,3,0,0,0,13,60ZM40.886,40.283A9.048,9.048,0,0,1,48,49.084V57a1,1,0,0,1-1,1H42V48a1,1,0,0,0-2,0V58H35.279l2.5-10.041a1.992,1.992,0,0,0-.82-2.19l-.967-.645,1.494-.746a2,2,0,0,0,.82-2.818l-1.26-2.1ZM35.1,43.335a2,2,0,0,0-.216,3.453l.961.666L33.218,58H31V43.414l3.8-3.8,1.786,2.976ZM19.528,4.778A9.1,9.1,0,0,1,26.11,2h7.78a9.062,9.062,0,0,1,6.619,2.821,8.927,8.927,0,0,1,2.482,6.641,51.847,51.847,0,0,1-.6,5.463,4.1,4.1,0,0,0-1.022-.6L41,16.2,41,13c0-3.038-2.355-5-6-5a1,1,0,0,0-.9.553C33.417,9.93,32.1,10,30,10H25.21a7.221,7.221,0,0,0-7.184,6.59,4.043,4.043,0,0,0-.733.608c-.107-1.424-.215-3.565-.293-5.938A8.856,8.856,0,0,1,19.528,4.778ZM18,20.5a2.482,2.482,0,0,1,1.373-2.362A1,1,0,0,0,20,17.21,5.216,5.216,0,0,1,25.21,12H30c1.89,0,4.2,0,5.559-1.979C36.9,10.122,39,10.655,39,13l0,3.182a2.024,2.024,0,0,0,1.347,1.925l.355.1A2.337,2.337,0,0,1,42,20.5a2.477,2.477,0,0,1-1.529,2.423,1,1,0,0,0-.71.9,9.258,9.258,0,0,1-.167,1.153C38.137,23.663,35.26,22,30,22c-.2,0-.385.014-.581.019L29.98,19.2a1,1,0,1,0-1.96-.39l-.668,3.357a12.317,12.317,0,0,0-6.947,2.819,9.3,9.3,0,0,1-.166-1.154,1,1,0,0,0-.71-.9A2.477,2.477,0,0,1,18,20.5Zm3.151,6.576C21.863,26.173,24.182,24,30,24s8.138,2.174,8.85,3.077C38.078,28.555,35.317,33,30,33,24.7,33,21.939,28.583,21.151,27.076ZM30,35a10.74,10.74,0,0,0,4-.759v3.345l-4,4-4-4V34.241A10.74,10.74,0,0,0,30,35ZM24.154,47.433l.967-.645a2,2,0,0,0-.215-3.453l-1.493-.746L25.2,39.613l3.8,3.8V58H26.782Z"/><path class="cls-7" d="M25,21a1,1,0,0,0,1-1V19a1,1,0,0,0-2,0v1A1,1,0,0,0,25,21Z"/><path class="cls-7" d="M35,21a1,1,0,0,0,1-1V19a1,1,0,0,0-2,0v1A1,1,0,0,0,35,21Z"/><path class="cls-7" d="M26,26a1,1,0,0,0-1,1v1a1,1,0,0,0,2,0V27A1,1,0,0,0,26,26Z"/><path class="cls-7" d="M31,28V27a1,1,0,0,0-2,0v1a1,1,0,0,0,2,0Z"/><path class="cls-7" d="M34,29a1,1,0,0,0,1-1V27a1,1,0,0,0-2,0v1A1,1,0,0,0,34,29Z"/></svg>